<?xml version="1.0" encoding="UTF-8"?>
<svg id="Layer_2" data-name="Layer 2" xmlns="http://www.w3.org/2000/svg" viewBox="0 0 375.99 313.7">
  <defs>
    <style>
      .cls-1 {
        stroke: #515254;
      }
    </style>
  </defs>
  <g id="Layer_1-2" data-name="Layer 1">
    <path class="cls-1" d="M134.97,.23l-20.3,39.1H42.27c-3.4,0-6.3,2.5-6.9,5.8L.67,234.73c-.6,3.1,.4,6.3,2.7,8.6l22.7,22.4c2.2,2.2,5.1,3.4,8.2,3.3l31.9-.1,34.5,42.8c1.1,1.4,3,1.8,4.4,1.2s2.6-2.1,2.5-3.9h0l-2.6-40.2,245-.5c3.4,0,6.3-2.5,6.9-5.8l18.5-109.3c.5-3.2-.6-6.4-3.1-8.5L252.27,42.33c-2.3-2-5.2-3-8.2-3h-101.2l.8,5.2v.1h100.4c1.8,0,3.4,.6,4.8,1.8l120,102.4c1,.9,1.5,2.2,1.3,3.6l-18.5,109.3c-.1,.8-.8,1.4-1.7,1.4l-247.8,.5c-1.5,0-2.7,1.3-2.6,2.8l2.5,38.6-32.6-40.3c-.5-.6-1.3-1-2.1-1l-33.2,.1c-1.7,0-3.2-.7-4.4-1.8l-22.7-22.4c-1-1-1.5-2.4-1.2-3.9L40.57,46.13c.2-.9,.9-1.5,1.7-1.5H111.87l-23.4,45.2h19l-4.7,26.3c-.2,1.4-1.8,2.7-3.3,2.7h-32c-1.5,0-2.6-1.3-2.3-2.7l9.6-52.8c.4-2.6-1.3-4.5-3.7-4.5h-14.6c-2.6,0-5,1.9-5.4,4.5l-10.1,55.6c-2.2,11.6,5.8,21.1,17.6,21.1l39.8,.1h2.4c3.1,0,6.2-.6,9.1-1.8L134.97,.23Zm40.1,58.6c-2.6,0-5,1.9-5.4,4.5l-13,72.1c-.5,2.6,1.1,4.6,3.7,4.6h15.4c2.5,0,4.9-2,5.4-4.6l2.7-15c.1-.5,.6-.9,1.1-.9h37.1c11.9,0,23.1-9.5,25.3-21.2l3.3-18.4c2-11.6-5.9-21.1-17.8-21.1h-57.8Zm-43.1,2.4l-20.9,115.7h0l-5.8,32.1c-2.2,11.6,5.8,21.1,17.6,21.1l9.1,.1,3.8-21.3h-6c-1.5,0-2.6-1.3-2.3-2.7l6-33h0l6.8-33h9.8l-18.1-79Zm60.2,17.9h29.9c2.3,0,3.8,1.9,3.3,4.1l-2.2,12.1c-.4,2.2-2.5,4-4.7,4h-29.9c-.5,0-.9-.4-.8-.9l3-16.6,.3-1.7c.1-.5,.6-1,1.1-1h0Zm27.3,46.4c-.2,.7-.4,1.3-.7,2h-4.3v1.1h3.8c-1,2-2.4,3.8-4.2,5.1,.2,.2,.6,.6,.7,.9,1-.7,1.8-1.5,2.5-2.4v7.3h1.1v-3h6.4v1.6c0,.2-.1,.3-.4,.3h-2.2c.2,.3,.3,.8,.4,1.1,1.3,0,2.1,0,2.7-.2,.5-.2,.6-.5,.6-1.2v-7.8h-7.4c.3-.6,.6-1.2,.9-1.8h8.2v-1.1h-7.8c.2-.5,.4-1.1,.6-1.7l-.9-.2Zm37.1,.1h0c-.9,0-1.6,.8-1.6,1.7,0,.2,.1,.3,.1,.5h-8.2c-.5,0-1.1,0-1.5-.1v1.4h9.3c-.2,1.5-.9,3.6-2,5-1.3,1.6-3,2.9-6,3.7l1,1.1c2.8-.9,4.6-2.3,6-4.1,1.2-1.6,2-4,2.3-5.6,0-.1,.1-.1,.1-.2,.2,.1,.4,.1,.6,.1,1,0,1.7-.8,1.7-1.7s-.8-1.8-1.8-1.8h0Zm-56.3,0l-.6,.8c1,.5,2.2,1.2,2.8,1.8l.7-.9c-.7-.6-1.9-1.2-2.9-1.7h0Zm4.5,.5v1.8c0,1.1-.3,2.5-2.1,3.4,.2,.1,.6,.6,.8,.8,2-1.1,2.4-2.8,2.4-4.2v-.7h3.2v2.6c0,.9,.1,1.2,.3,1.4,.3,.2,.6,.3,1,.3h.9c.3,0,.6,0,.9-.1,.2-.1,.4-.3,.5-.5,.1-.3,.1-1,.2-1.6-.3-.1-.7-.3-.9-.5,0,.7,0,1.2-.1,1.4,0,.2-.1,.3-.2,.4-.1,0-.2,.1-.4,.1h-.6c-.2,0-.3,0-.4-.1-.1,0-.1-.2-.1-.5v-3.7l-5.4-.3h0Zm51.8,.2h0c.6,0,1.1,.5,1.1,1s-.5,1-1,1-1-.5-1-1c-.1-.5,.3-1,.9-1h0Zm29.4,0c-1.1,1.3-2.6,2.6-4.2,3.6-1.7,1.1-4,2.1-6.7,2.9l.6,1.2c2.1-.7,4.2-1.6,5.8-2.5v5.6c0,.6,0,1.3-.1,1.6h1.5c-.1-.3-.1-1-.1-1.6v-6.4c1.5-1,3-2.2,4.1-3.4l-.9-1Zm38.7,.2c.1,.5,.1,1.2,.1,1.6v8.9c0,.6,0,1.3-.1,1.8h1.5c-.1-.5-.1-1.3-.1-1.8v-5c1.7,.5,4.3,1.6,6,2.5l.5-1.3c-1.6-.8-4.5-1.9-6.5-2.5v-2.5c0-.5,.1-1.1,.1-1.6h-1.5v-.1Zm-62.6,.4v1.3h8.8v-1.3c-.4,.1-.9,.1-1.4,.1h-6c-.5,0-1,0-1.4-.1h0Zm39.5,.3l-.9,.4c.5,.7,1.1,1.6,1.5,2.4l.9-.4c-.4-.8-1.1-1.9-1.5-2.4h0Zm-1.9,.7l-.9,.4c.5,.7,1,1.6,1.4,2.5l.9-.4c-.4-.8-1.1-1.9-1.4-2.5h0Zm-4.4,1c-.4,0-.9,.3-1.3,.8-1,1.1-2.3,2.8-3,3.5-.4,.4-.7,.7-1.1,1l1.1,1.2c.2-.3,.6-.8,.9-1.2,.7-.9,2-2.5,2.7-3.4,.5-.6,.8-.7,1.4-.1s2.1,2.1,3,3.1c1,1.1,2.3,2.7,3.4,4l1-1.1c-1.2-1.2-2.7-2.9-3.7-4-.9-1-2.2-2.3-3.1-3.2-.5-.4-.9-.6-1.3-.6h0Zm-95.8,.8l-.6,.8c1,.4,2.2,1.1,2.8,1.7l.6-1c-.6-.5-1.8-1.1-2.8-1.5h0Zm71.6,.7c-.2,.1-.5,.1-.8,.1h-8c-.4,0-.9,0-1.5-.1v1.3h9.6c-.3,1.1-.9,2.4-1.8,3.4-1.3,1.4-3.2,2.4-5.4,2.8l1,1.1c2-.5,3.9-1.4,5.5-3.2,1.1-1.2,1.8-2.8,2.2-4.3,.1-.1,.1-.3,.2-.5h0l-1-.6Zm-52.6,.9h6.4v1.5h-6.4v-1.5Zm87.4,.4v1.5c.5,0,1.3-.1,2.1-.1h8.4c.7,0,1.3,.1,1.6,.1v-1.5c-.3,0-.9,.1-1.6,.1h-8.4c-.8-.1-1.6-.1-2.1-.1h0Zm-95,.5h-7.4v1.1h1.9l-.7,.2c.6,1.2,1.3,2.3,2.3,3.2-1.4,.9-3,1.4-4.6,1.8,.2,.2,.5,.7,.6,1,1.8-.4,3.4-1,4.9-2,1.2,1,2.8,1.6,4.5,2,.2-.3,.5-.8,.8-1-1.6-.3-3.1-.9-4.3-1.7,1.3-1.1,2.3-2.5,3-4.2l-1-.4Zm-5.3,1.1h4.5c-.5,1.1-1.3,2-2.3,2.8-.9-.8-1.7-1.8-2.2-2.8h0Zm-3.5,.3c-.8,1.7-1.9,3.7-2.7,4.9l1,.7c.8-1.4,1.8-3.3,2.6-4.9l-.9-.7Zm16.4,.2h6.4v1.6h-6.4v-1.6Zm16.9,2.6v1.3l-.6,2.4h1l1.2-2.4v-1.3h-1.6Zm-17.4,12.8c-2.6,0-5,1.9-5.4,4.5l-6.8,37.5c-.2,1-1.5,1.3-2.2,.4l-22.9-40.8c-.6-1-1.9-1.5-3.2-1.5h-19.4c-2.6,0-5,1.9-5.4,4.5l-13,72.1c-.5,2.4,1.3,4.5,3.8,4.5h15.1c2.6,0,5-2,5.5-4.5l7.3-40.7c.1-1,1.5-1.3,2-.4l25.1,43.9c.6,1,1.8,1.7,3.2,1.7h16.8c2.5,0,5-2,5.4-4.5l13-72.1c.5-2.6-1.1-4.5-3.7-4.5l-15.2-.1h0Zm-177.5,0c-2.6,0-5,1.9-5.4,4.5l-13,72.1c-.5,2.4,1.1,4.5,3.7,4.5H90.67c2.6,0,5-2,5.4-4.5l2.2-12.3c.5-2.4-1.1-4.5-3.7-4.5H52.27c-1.5,0-2.6-1.3-2.2-2.7l9.5-52.7c.5-2.6-1.3-4.5-3.7-4.5l-15.4,.1h0Zm212.5,0c-2.6,0-5,2-5.4,4.6l-13,72.1c-.5,2.4,1.1,4.5,3.7,4.5h15.4c2.5,0,5-2,5.4-4.5l1.1-6.5c.1-.6,.5-1.3,1-1.8l11-10.5,14.7,21.7c.6,1,1.8,1.7,3.2,1.7h23.8c1.5,0,2.8-1.8,1.9-3.1l-24.9-37c-.2-.4-.1-.9,.1-1.1l38.6-37.2c1.3-1.1,.8-2.9-.9-2.9h-23.8c-1.4,0-2.8,.5-3.8,1.5l-32.8,31.6c-1.7,1.1-1.3-.8-1.3-.8l5-27.8c.5-2.5-1.3-4.6-3.7-4.6l-15.3,.1h0Z"/>
  </g>
</svg>