<?xml version="1.0" encoding="utf-8"?>
<!-- Generator: Adobe Illustrator 27.0.0, SVG Export Plug-In . SVG Version: 6.00 Build 0)  -->
<svg version="1.1" id="Layer_1" xmlns="http://www.w3.org/2000/svg" xmlns:xlink="http://www.w3.org/1999/xlink" x="0px" y="0px"
	 viewBox="0 0 595.3 841.9" style="enable-background:new 0 0 595.3 841.9;" xml:space="preserve">
<style type="text/css">
	.st0{stroke:#515254;}
</style>
<g>
	<g>
		<g>
			<path class="st0" d="M244.5,264.9L224.2,304h-72.4c-3.4,0-6.3,2.5-6.9,5.8l-34.7,189.6c-0.6,3.1,0.4,6.3,2.7,8.6l22.7,22.4
				c2.2,2.2,5.1,3.4,8.2,3.3l31.9-0.1l34.5,42.8c1.1,1.4,3,1.8,4.4,1.2s2.6-2.1,2.5-3.9v0l-2.6-40.2l245-0.5c3.4,0,6.3-2.5,6.9-5.8
				l18.5-109.3c0.5-3.2-0.6-6.4-3.1-8.5l-120-102.4c-2.3-2-5.2-3-8.2-3H252.4l0.8,5.2l0,0.1h100.4c1.8,0,3.4,0.6,4.8,1.8l120,102.4
				c1,0.9,1.5,2.2,1.3,3.6l-18.5,109.3c-0.1,0.8-0.8,1.4-1.7,1.4l-247.8,0.5c-1.5,0-2.7,1.3-2.6,2.8l2.5,38.6L179,529.4
				c-0.5-0.6-1.3-1-2.1-1l-33.2,0.1c-1.7,0-3.2-0.7-4.4-1.8l-22.7-22.4c-1-1-1.5-2.4-1.2-3.9l34.7-189.6c0.2-0.9,0.9-1.5,1.7-1.5
				h69.6l-23.4,45.2h19l-4.7,26.3c-0.2,1.4-1.8,2.7-3.3,2.7h-32c-1.5,0-2.6-1.3-2.3-2.7l9.6-52.8c0.4-2.6-1.3-4.5-3.7-4.5h-14.6
				c-2.6,0-5,1.9-5.4,4.5l-10.1,55.6c-2.2,11.6,5.8,21.1,17.6,21.1l39.8,0.1h2.4c3.1,0,6.2-0.6,9.1-1.8L244.5,264.9z M284.6,323.5
				c-2.6,0-5,1.9-5.4,4.5l-13,72.1c-0.5,2.6,1.1,4.6,3.7,4.6h15.4c2.5,0,4.9-2,5.4-4.6l2.7-15c0.1-0.5,0.6-0.9,1.1-0.9h37.1
				c11.9,0,23.1-9.5,25.3-21.2l3.3-18.4c2-11.6-5.9-21.1-17.8-21.1L284.6,323.5L284.6,323.5z M241.5,325.9l-20.9,115.7v0l-5.8,32.1
				c-2.2,11.6,5.8,21.1,17.6,21.1l9.1,0.1l3.8-21.3h-6c-1.5,0-2.6-1.3-2.3-2.7l6-33v0l6.8-33h9.8L241.5,325.9z M301.7,343.8h29.9
				c2.3,0,3.8,1.9,3.3,4.1l-2.2,12.1c-0.4,2.2-2.5,4-4.7,4h-29.9c-0.5,0-0.9-0.4-0.8-0.9l3-16.6l0.3-1.7
				C300.7,344.3,301.2,343.8,301.7,343.8L301.7,343.8z M329,390.2c-0.2,0.7-0.4,1.3-0.7,2H324v1.1h3.8c-1,2-2.4,3.8-4.2,5.1
				c0.2,0.2,0.6,0.6,0.7,0.9c1-0.7,1.8-1.5,2.5-2.4v7.3h1.1v-3h6.4v1.6c0,0.2-0.1,0.3-0.4,0.3c-0.3,0-1.2,0-2.2,0
				c0.2,0.3,0.3,0.8,0.4,1.1c1.3,0,2.1,0,2.7-0.2c0.5-0.2,0.6-0.5,0.6-1.2V395h-7.4c0.3-0.6,0.6-1.2,0.9-1.8h8.2v-1.1h-7.8
				c0.2-0.5,0.4-1.1,0.6-1.7L329,390.2z M366.1,390.3L366.1,390.3c-0.9,0-1.6,0.8-1.6,1.7c0,0.2,0.1,0.3,0.1,0.5c-0.2,0-0.4,0-0.5,0
				h-7.7c-0.5,0-1.1,0-1.5-0.1v1.4c0.4,0,0.9,0,1.5,0h7.8c-0.2,1.5-0.9,3.6-2,5c-1.3,1.6-3,2.9-6,3.7l1,1.1c2.8-0.9,4.6-2.3,6-4.1
				c1.2-1.6,2-4,2.3-5.6c0-0.1,0.1-0.1,0.1-0.2c0.2,0.1,0.4,0.1,0.6,0.1c1,0,1.7-0.8,1.7-1.7S367.1,390.3,366.1,390.3
				C366.1,390.3,366.1,390.3,366.1,390.3L366.1,390.3z M309.8,390.3l-0.6,0.8c1,0.5,2.2,1.2,2.8,1.8l0.7-0.9
				C312,391.4,310.8,390.8,309.8,390.3L309.8,390.3z M314.3,390.8v1.8c0,1.1-0.3,2.5-2.1,3.4c0.2,0.1,0.6,0.6,0.8,0.8
				c2-1.1,2.4-2.8,2.4-4.2v-0.7h3.2v2.6c0,0.9,0.1,1.2,0.3,1.4c0.3,0.2,0.6,0.3,1,0.3h0.9c0.3,0,0.6,0,0.9-0.1
				c0.2-0.1,0.4-0.3,0.5-0.5c0.1-0.3,0.1-1,0.2-1.6c-0.3-0.1-0.7-0.3-0.9-0.5c0,0.7,0,1.2-0.1,1.4c0,0.2-0.1,0.3-0.2,0.4
				c-0.1,0-0.2,0.1-0.4,0.1h-0.6c-0.2,0-0.3,0-0.4-0.1c-0.1,0-0.1-0.2-0.1-0.5v-3.7L314.3,390.8L314.3,390.8z M366.1,391L366.1,391
				C366.1,391,366.1,391,366.1,391c0.6,0,1.1,0.5,1.1,1c0,0.5-0.5,1-1,1c-0.5,0-1-0.5-1-1C365.1,391.5,365.5,391,366.1,391
				L366.1,391z M395.5,391c-1.1,1.3-2.6,2.6-4.2,3.6c-1.7,1.1-4,2.1-6.7,2.9l0.6,1.2c2.1-0.7,4.2-1.6,5.8-2.5v5.6
				c0,0.6,0,1.3-0.1,1.6h1.5c-0.1-0.3-0.1-1-0.1-1.6v-6.4c1.5-1,3-2.2,4.1-3.4L395.5,391z M434.2,391.2c0.1,0.5,0.1,1.2,0.1,1.6v8.9
				c0,0.6,0,1.3-0.1,1.8h1.5c-0.1-0.5-0.1-1.3-0.1-1.8v-5c1.7,0.5,4.3,1.6,6,2.5l0.5-1.3c-1.6-0.8-4.5-1.9-6.5-2.5v-2.5
				c0-0.5,0.1-1.1,0.1-1.6H434.2z M371.6,391.6v1.3c0.4,0,0.9,0,1.4,0h6c0.5,0,1,0,1.4,0v-1.3c-0.4,0.1-0.9,0.1-1.4,0.1h-6
				C372.5,391.7,372,391.7,371.6,391.6L371.6,391.6z M411.1,391.9l-0.9,0.4c0.5,0.7,1.1,1.6,1.5,2.4l0.9-0.4
				C412.2,393.5,411.5,392.4,411.1,391.9L411.1,391.9z M409.2,392.6l-0.9,0.4c0.5,0.7,1,1.6,1.4,2.5l0.9-0.4
				C410.2,394.3,409.5,393.2,409.2,392.6L409.2,392.6z M404.8,393.6c-0.4,0-0.9,0.3-1.3,0.8c-1,1.1-2.3,2.8-3,3.5
				c-0.4,0.4-0.7,0.7-1.1,1l1.1,1.2c0.2-0.3,0.6-0.8,0.9-1.2c0.7-0.9,2-2.5,2.7-3.4c0.5-0.6,0.8-0.7,1.4-0.1c0.6,0.6,2.1,2.1,3,3.1
				c1,1.1,2.3,2.7,3.4,4l1-1.1c-1.2-1.2-2.7-2.9-3.7-4c-0.9-1-2.2-2.3-3.1-3.2C405.6,393.8,405.2,393.6,404.8,393.6L404.8,393.6z
				 M309,394.4l-0.6,0.8c1,0.4,2.2,1.1,2.8,1.7l0.6-1C311.2,395.4,310,394.8,309,394.4L309,394.4z M380.6,395.1
				c-0.2,0.1-0.5,0.1-0.8,0.1h-8c-0.4,0-0.9,0-1.5-0.1v1.3c0.5,0,1.1,0,1.5,0h8.1c-0.3,1.1-0.9,2.4-1.8,3.4
				c-1.3,1.4-3.2,2.4-5.4,2.8l1,1.1c2-0.5,3.9-1.4,5.5-3.2c1.1-1.2,1.8-2.8,2.2-4.3c0.1-0.1,0.1-0.3,0.2-0.5l0,0L380.6,395.1z
				 M328,396h6.4v1.5H328V396z M415.4,396.4v1.5c0.5,0,1.3-0.1,2.1-0.1h8.4c0.7,0,1.3,0.1,1.6,0.1v-1.5c-0.3,0-0.9,0.1-1.6,0.1h-8.4
				C416.7,396.4,415.9,396.4,415.4,396.4L415.4,396.4z M320.4,396.9l-0.2,0H313v1.1h1.9l-0.7,0.2c0.6,1.2,1.3,2.3,2.3,3.2
				c-1.4,0.9-3,1.4-4.6,1.8c0.2,0.2,0.5,0.7,0.6,1c1.8-0.4,3.4-1,4.9-2c1.2,1,2.8,1.6,4.5,2c0.2-0.3,0.5-0.8,0.8-1
				c-1.6-0.3-3.1-0.9-4.3-1.7c1.3-1.1,2.3-2.5,3-4.2L320.4,396.9z M315.1,398h4.5c-0.5,1.1-1.3,2-2.3,2.8
				C316.4,400,315.6,399,315.1,398L315.1,398z M311.6,398.3c-0.8,1.7-1.9,3.7-2.7,4.9l1,0.7c0.8-1.4,1.8-3.3,2.6-4.9L311.6,398.3z
				 M328,398.5h6.4v1.6H328V398.5z M344.9,401.1v1.3l-0.6,2.4h1l1.2-2.4v-1.3H344.9z M327.5,413.9c-2.6,0-5,1.9-5.4,4.5l-6.8,37.5
				c-0.2,1-1.5,1.3-2.2,0.4l-22.9-40.8c-0.6-1-1.9-1.5-3.2-1.5h-19.4c-2.6,0-5,1.9-5.4,4.5l-13,72.1c-0.5,2.4,1.3,4.5,3.8,4.5h15.1
				c2.6,0,5-2,5.5-4.5l7.3-40.7c0.1-1,1.5-1.3,2-0.4l25.1,43.9c0.6,1,1.8,1.7,3.2,1.7h16.8c2.5,0,5-2,5.4-4.5l13-72.1
				c0.5-2.6-1.1-4.5-3.7-4.5L327.5,413.9L327.5,413.9z M150,413.9c-2.6,0-5,1.9-5.4,4.5l-13,72.1c-0.5,2.4,1.1,4.5,3.7,4.5h64.9
				c2.6,0,5-2,5.4-4.5l2.2-12.3c0.5-2.4-1.1-4.5-3.7-4.5h-42.3c-1.5,0-2.6-1.3-2.2-2.7l9.5-52.7c0.5-2.6-1.3-4.5-3.7-4.5L150,413.9
				L150,413.9z M362.5,413.9c-2.6,0-5,2-5.4,4.6l-13,72.1c-0.5,2.4,1.1,4.5,3.7,4.5h15.4c2.5,0,5-2,5.4-4.5l1.1-6.5
				c0.1-0.6,0.5-1.3,1-1.8l11-10.5l14.7,21.7c0.6,1,1.8,1.7,3.2,1.7h23.8c1.5,0,2.8-1.8,1.9-3.1l-24.9-37c-0.2-0.4-0.1-0.9,0.1-1.1
				l38.6-37.2c1.3-1.1,0.8-2.9-0.9-2.9h-23.8c-1.4,0-2.8,0.5-3.8,1.5L377.8,447c-1.7,1.1-1.3-0.8-1.3-0.8l5-27.8
				c0.5-2.5-1.3-4.6-3.7-4.6L362.5,413.9L362.5,413.9z"/>
		</g>
	</g>
</g>
</svg>
