<svg width="24" height="24" viewBox="0 0 24 24" fill="none" xmlns="http://www.w3.org/2000/svg">
<path d=" M 9.11 8.755 L 16.49 8.755 M 7.49 11.755 L 9.11 11.755 M 16.99 16.745 C 17.71 16.675 18.33 16.595 19.04 16.485 C 20.62 16.255 21.75 14.855 21.75 13.255 L 21.75 7.235 C 21.75 5.635 20.63 4.235 19.04 4.005 C 16.71 3.665 14.35 3.495 12 3.495 C 9.61 3.495 7.26 3.665 4.96 4.005 C 4.78 4.035 4.6 4.075 4.43 4.125 M 2.83 5.345 C 2.46 5.885 2.25 6.535 2.25 7.235 L 2.25 13.255 L 2.25 13.255 C 2.25 14.855 3.37 16.245 4.96 16.485 C 6.09 16.655 7.23 16.775 8.38 16.865 C 8.73 16.895 9.05 17.075 9.24 17.365 L 12 21.495 L 14.76 17.365 M 2.74 2.505 L 20.15 19.915" stroke="#0F172A" stroke-width="1.5" stroke-linecap="round" stroke-linejoin="round"/>
</svg>