<svg width="24" height="24" viewBox="0 0 24 24" fill="none" xmlns="http://www.w3.org/2000/svg">
    <path d=" M 21 6 C 21 7.66 19.66 9 18 9 L 6 9 C 4.34 9 3 7.66 3 6 C 3 4.34 4.34 3 6 3 C 7.66 3 9 4.34 9 6 L 9 18 C 9 19.66 7.66 21 6 21 C 4.34 21 3 19.66 3 18 C 3 16.34 4.34 15 6 15 L 18 15 C 19.66 15 21 16.34 21 18 C 21 19.66 19.66 21 18 21 C 16.34 21 15 19.66 15 18 L 15 6 C 15 4.34 16.34 3 18 3 C 19.66 3 21 4.34 21 6 Z " stroke="#0F172A" stroke-width="1.5" stroke-linecap="round" stroke-linejoin="round"/>
    </svg>