<svg width="24" height="24" viewBox="0 0 24 24" fill="none" xmlns="http://www.w3.org/2000/svg">
    <path d=" M 8.35 10.685 C 8.35 10.205 8.83 9.895 9.23 10.135 L 15.33 13.695 C 15.74 13.935 15.74 14.555 15.33 14.805 L 9.23 18.365 C 8.83 18.595 8.35 18.285 8.35 17.815 L 8.35 10.675 L 8.35 10.685 Z  M 8.24 2.255 L 10.12 2.255 C 11.99 2.255 13.5 3.775 13.5 5.635 L 13.5 7.135 C 13.5 7.755 14 8.255 14.62 8.255 L 16.12 8.255 C 17.99 8.255 19.5 9.775 19.5 11.635 L 19.5 14.255 M 10.49 2.255 C 15.46 2.255 19.49 6.285 19.49 11.255 L 19.49 20.625 C 19.49 21.245 18.99 21.745 18.37 21.745 L 5.62 21.745 C 5 21.745 4.5 21.245 4.5 20.625 L 4.5 3.375 C 4.5 2.755 5 2.255 5.62 2.255 L 10.5 2.255 L 10.5 2.255 L 10.49 2.255 Z " stroke="#0F172A" stroke-width="1.5" stroke-linecap="round" stroke-linejoin="round"/>
    </svg>
