<svg width="24" height="24" viewBox="0 0 24 24" fill="none" xmlns="http://www.w3.org/2000/svg">
    <path d=" M 19.5 14.255 L 19.5 11.635 C 19.5 9.775 17.99 8.255 16.12 8.255 L 14.62 8.255 C 14 8.255 13.5 7.755 13.5 7.135 L 13.5 5.635 C 13.5 3.775 11.99 2.255 10.12 2.255 L 8.24 2.255 M 10.5 2.255 L 5.62 2.255 C 5 2.255 4.5 2.755 4.5 3.375 L 4.5 20.625 C 4.5 21.245 5 21.745 5.62 21.745 L 18.37 21.745 C 18.99 21.745 19.49 21.245 19.49 20.625 L 19.49 11.255 C 19.49 6.285 15.46 2.255 10.49 2.255 L 10.49 2.255 L 10.5 2.255 Z  M 8.16 8.605 C 8.16 8.125 8.64 7.815 9.04 8.055 L 15.14 11.615 C 15.55 11.855 15.55 12.475 15.14 12.725 L 9.04 16.285 C 8.64 16.515 8.16 16.205 8.16 15.735 L 8.16 8.595 L 8.16 8.605 Z " stroke="#0F172A" stroke-width="1.5" stroke-linecap="round" stroke-linejoin="round"/>
    </svg>
