<svg width="24" height="24" viewBox="0 0 24 24" fill="none" xmlns="http://www.w3.org/2000/svg">
    <path d=" M 14.38 12.505 L 16.77 14.895 L 14.38 17.285 M 9.6 17.285 L 7.21 14.895 L 9.6 12.505 M 13.02 11.145 L 10.97 18.655 M 19.5 14.255 L 19.5 11.635 C 19.5 9.775 17.99 8.255 16.12 8.255 L 14.62 8.255 C 14 8.255 13.5 7.755 13.5 7.135 L 13.5 5.635 C 13.5 3.775 11.99 2.255 10.12 2.255 L 8.24 2.255 M 10.5 2.255 L 5.62 2.255 C 5 2.255 4.5 2.755 4.5 3.375 L 4.5 20.625 C 4.5 21.245 5 21.745 5.62 21.745 L 18.37 21.745 C 18.99 21.745 19.49 21.245 19.49 20.625 L 19.49 11.255 C 19.49 6.285 15.46 2.255 10.49 2.255 L 10.49 2.255 L 10.5 2.255 Z " stroke="#0F172A" stroke-width="1" stroke-linecap="round" stroke-linejoin="round"/>
    </svg>
