<svg width="24" height="24" viewBox="0 0 24 24" fill="none" xmlns="http://www.w3.org/2000/svg">
    <path d=" M 6.27 12.305 L 6.27 14.685 M 6.27 14.675 L 6.27 17.055 M 8.14 14.655 C 8.14 11.915 6.27 12.295 6.27 12.295 M 6.27 17.055 C 6.27 17.055 8.14 17.425 8.14 14.655 M 15.84 12.285 L 17.71 17.035 M 17.71 12.285 L 15.83 17.035 M 10.36 12.295 C 9.42 12.295 9.42 13.355 9.42 14.675 C 9.42 15.995 9.42 17.045 10.36 17.045 C 11.3 17.045 11.3 15.985 11.3 14.675 C 11.3 13.365 11.3 12.295 10.36 12.295 Z  M 14.57 13.495 C 14.5 12.785 14.26 12.315 13.63 12.315 C 12.69 12.315 12.69 13.375 12.69 14.695 C 12.69 16.015 12.69 17.065 13.63 17.065 C 14.26 17.065 14.5 16.595 14.57 15.895 M 19.5 14.255 L 19.5 11.635 C 19.5 9.775 17.99 8.255 16.12 8.255 L 14.62 8.255 C 14 8.255 13.5 7.755 13.5 7.135 L 13.5 5.635 C 13.5 3.775 11.99 2.255 10.12 2.255 L 8.24 2.255 M 10.5 2.255 L 5.62 2.255 C 5 2.255 4.5 2.755 4.5 3.375 L 4.5 20.625 C 4.5 21.245 5 21.745 5.62 21.745 L 18.37 21.745 C 18.99 21.745 19.49 21.245 19.49 20.625 L 19.49 11.255 C 19.49 6.285 15.46 2.255 10.49 2.255 L 10.49 2.255 L 10.5 2.255 Z " stroke="#0F172A" stroke-width="1" stroke-linecap="round" stroke-linejoin="round"/>
    </svg>