<svg width="24" height="24" viewBox="0 0 24 24" fill="none" xmlns="http://www.w3.org/2000/svg">
    <path d=" M 19.5 14.255 L 19.5 11.635 C 19.5 9.775 17.99 8.255 16.12 8.255 L 14.62 8.255 C 14 8.255 13.5 7.755 13.5 7.135 L 13.5 5.635 C 13.5 3.775 11.99 2.255 10.12 2.255 L 8.24 2.255 M 10.5 2.255 L 5.62 2.255 C 5 2.255 4.5 2.755 4.5 3.375 L 4.5 20.625 C 4.5 21.245 5 21.745 5.62 21.745 L 18.37 21.745 C 18.99 21.745 19.49 21.245 19.49 20.625 L 19.49 11.255 C 19.49 6.285 15.46 2.255 10.49 2.255 L 10.5 2.255 Z  M 7.5 7.965 C 7.5 7.395 8.07 7.035 8.54 7.315 L 15.75 11.525 C 16.24 11.805 16.24 12.545 15.75 12.835 L 8.54 17.045 C 8.07 17.315 7.5 16.955 7.5 16.395 L 7.5 7.965 Z " stroke="#0F172A" stroke-width="1.5" stroke-linecap="round" stroke-linejoin="round"/>
    </svg>
    