<svg width="24" height="24" viewBox="0 0 24 24" fill="none" xmlns="http://www.w3.org/2000/svg">
    <path d=" M 16.32 12.265 L 14.45 12.265 L 14.45 14.645 M 14.44 14.635 L 14.44 17.015 M 14.44 14.635 L 15.85 14.635 M 7.68 12.275 L 7.68 14.655 M 7.68 14.645 L 7.68 17.025 M 8.62 12.275 L 7.68 12.275 M 7.68 14.645 L 8.62 14.645 M 8.62 14.645 C 8.62 14.645 9.56 14.625 9.56 13.445 C 9.53 12.177 8.624 12.297 8.62 12.275 M 11.03 12.275 L 11.03 14.655 M 11.03 14.645 L 11.03 17.025 M 12.91 14.625 C 12.91 11.885 11.04 12.265 11.04 12.265 M 11.03 17.025 C 11.03 17.025 12.9 17.395 12.9 14.625 M 19.5 14.255 L 19.5 11.635 C 19.5 9.775 17.99 8.255 16.12 8.255 L 14.62 8.255 C 14 8.255 13.5 7.755 13.5 7.135 L 13.5 5.635 C 13.5 3.775 11.99 2.255 10.12 2.255 L 8.24 2.255 M 10.5 2.255 L 5.62 2.255 C 5 2.255 4.5 2.755 4.5 3.375 L 4.5 20.625 C 4.5 21.245 5 21.745 5.62 21.745 L 18.37 21.745 C 18.99 21.745 19.49 21.245 19.49 20.625 L 19.49 11.255 C 19.49 6.285 15.46 2.255 10.49 2.255 L 10.49 2.255 L 10.5 2.255 Z " stroke="#0F172A" stroke-width="1" stroke-linecap="round" stroke-linejoin="round"/>
    </svg>