<svg width="24" height="24" viewBox="0 0 24 24" fill="none" xmlns="http://www.w3.org/2000/svg">
    <path d=" M 9.834 18.288 C 8.445 19.059 6.965 19.321 5.794 18.502 C 5.224 18.103 4.61 14.664 5.019 14.103 C 5.858 12.932 7.287 12.661 8.858 12.879 C 9.688 12.988 10.524 17.917 9.834 18.298 L 9.834 18.288 Z  M 14.174 18.283 C 15.565 19.051 17.045 19.31 18.214 18.488 C 18.784 18.088 19.39 14.647 18.979 14.087 C 18.138 12.918 16.707 12.65 15.138 12.872 C 14.308 12.983 13.484 17.914 14.174 18.293 L 14.174 18.283 Z  M 18.486 11.498 C 18.48 6.048 15.979 4.991 11.979 4.995 C 7.979 5 5.49 6.053 5.496 11.503" fill="none" vector-effect="non-scaling-stroke" stroke="#0F172A" stroke-width="1.5" stroke-linecap="round" stroke-linejoin="round"/>
    </svg>