<svg width="24" height="24" viewBox="0 0 24 24" fill="none" xmlns="http://www.w3.org/2000/svg">
    <path d=" M 9.86 18.29 C 8.47 19.06 6.99 19.32 5.82 18.5 C 5.25 18.1 4.64 14.66 5.05 14.1 C 5.89 12.93 7.32 12.66 8.89 12.88 C 9.72 12.99 10.55 17.92 9.86 18.3 L 9.86 18.29 Z  M 18.9 16.84 C 19.15 15.73 19.25 14.42 19.01 14.09 C 18.17 12.92 16.74 12.65 15.17 12.87 C 15.12 12.87 15.07 12.9 15.01 12.95 M 14.01 16.19 C 13.89 17.22 13.92 18.13 14.2 18.29 C 15.07 18.77 15.97 19.06 16.81 19 M 5.96 8.25 C 5.67 9.25 5.54 9.96 5.54 11.5 M 18.52 11.49 C 18.52 6.04 16.03 4.99 12.02 4.99 C 10.4 4.99 9.02 5.13 7.86 5.79 M 5.06 3 L 21 18.94" stroke="#0F172A" stroke-width="1.5" stroke-linecap="round" stroke-linejoin="round"/>
    </svg>