<svg width="24" height="24" viewBox="0 0 24 24" fill="none" xmlns="http://www.w3.org/2000/svg">
    <path d=" M 8.745 18.04 C 8.745 18.04 8.795 18.08 8.815 18.1 C 10.545 19.48 11.995 20.25 11.995 20.25 C 11.995 20.25 20.995 15.47 20.995 8.25 C 20.995 7.83 20.935 7.43 20.825 7.04 C 20.825 7.03 20.825 7.01 20.815 7 M 19.595 5.04 C 19.595 5.04 19.565 5.01 19.545 4.99 C 18.705 4.22 17.565 3.75 16.315 3.75 C 14.375 3.75 12.715 4.88 12.005 6.48 C 11.285 4.87 9.625 3.75 7.695 3.75 C 5.105 3.75 3.005 5.76 3.005 8.25 C 3.005 11.57 4.905 14.37 6.955 16.43 C 6.995 16.47 7.015 16.49 7.065 16.54 M 4.945 18.48 L 20.995 3.75" stroke="#0F172A" stroke-width="1.5" stroke-linecap="round" stroke-linejoin="round"/>
    </svg>