<svg width="24" height="24" viewBox="0 0 24 24" fill="none" xmlns="http://www.w3.org/2000/svg">
    <path d=" M 6.306 20.65 C 6.306 20.65 6.806 16.15 10.306 12.15 M 18.436 3.89 L 19.026 10.06 C 19.396 13.95 16.486 17.41 12.606 17.78 C 8.796 18.15 5.336 15.36 4.976 11.55 C 4.796 9.72 5.356 7.89 6.526 6.47 C 7.696 5.05 9.386 4.15 11.216 3.98 L 17.786 3.35 C 17.866 3.35 17.946 3.35 18.016 3.37 C 18.096 3.39 18.166 3.43 18.226 3.48 C 18.286 3.53 18.336 3.59 18.376 3.66 C 18.416 3.73 18.436 3.8 18.446 3.88 L 18.436 3.89 Z " stroke="#0F172A" stroke-width="1.5" stroke-linecap="round" stroke-linejoin="round"/>
    </svg>