<svg width="24" height="24" viewBox="0 0 24 24" fill="none" xmlns="http://www.w3.org/2000/svg">
    <path d=" M 15.04 2.78 C 14.45 2.59 13.85 2.45 13.23 2.37 C 12.94 2.31 12.71 2.08 12.73 1.78 C 12.75 1.49 13.04 1.24 13.36 1.3 C 16.24 1.65 18.92 3.23 20.64 5.56 M 21.59 7.08 C 21.51 6.9 21.41 6.72 21.3 6.55 M 19.08 5.38 C 18.6 4.85 18.03 4.39 17.45 3.97 M 19.19 7.24 C 19.01 6.98 18.81 6.72 18.62 6.47 M 15.98 3.15 C 13.17 1.87 9.73 2.04 7.08 3.64 C 4.4 5.19 2.57 8.1 2.33 11.19 C 2.31 11.49 2.54 11.74 2.84 11.74 C 3.14 11.74 3.39 11.54 3.4 11.27 C 3.64 8.21 5.64 5.34 8.47 4.12 C 11.26 2.85 14.74 3.21 17.18 5.11 M 16.39 4.58 C 16.12 4.4 15.83 4.28 15.54 4.14 C 15.3 4.01 15 4.19 14.9 4.46 C 14.79 4.75 14.9 5.01 15.09 5.12 C 17.03 5.99 18.72 8.15 19.35 10.19 M 23.45 8.93 C 22.69 6.17 21.32 4.5 20.2 3.43 C 19.93 3.18 19.55 3.17 19.36 3.4 C 19.17 3.63 19.21 3.99 19.45 4.21 C 19.75 4.48 20 4.79 20.27 5.08 M 21.4 8.64 C 20.88 8.64 20.47 9.06 20.47 9.57 C 20.47 10.08 20.89 10.5 21.4 10.5 C 21.91 10.5 22.33 10.08 22.33 9.57 C 22.33 9.06 21.91 8.64 21.4 8.64 Z  M 19.35 10.19 C 19.69 11.32 20.88 11.97 22.02 11.63 C 23.16 11.29 23.8 10.1 23.46 8.96" stroke="#0F172A" stroke-width="1" stroke-linecap="round" stroke-linejoin="round"/>
    </svg>
    