<svg width="24" height="24" viewBox="0 0 24 24" fill="none" xmlns="http://www.w3.org/2000/svg">
    <path d=" M 18.366 2.33 C 21.878 5.84 21.878 11.54 18.366 15.06 M 15.715 4.98 C 17.766 7.03 17.766 10.35 15.715 12.4 M 9.003 18.75 C 11.293 18.75 13.284 17.47 14.295 15.58 M 9.003 18.75 C 5.691 18.75 3 16.06 3 12.75 L 3 11.25 M 9.003 18.75 L 9.003 22.5 M 5.251 22.5 L 12.754 22.5 M 9.003 15.75 C 7.342 15.75 6.001 14.41 6.001 12.75 L 6.001 4.5 C 6.001 2.84 7.342 1.5 9.003 1.5 C 10.663 1.5 12.004 2.84 12.004 4.5 L 12.004 12.75 C 12.004 14.41 10.663 15.75 9.003 15.75 Z " stroke="#0F172A" stroke-width="1.5" stroke-linecap="round" stroke-linejoin="round"/>
</svg>