<svg width="24" height="24" viewBox="0 0 24 24" fill="none" xmlns="http://www.w3.org/2000/svg">
    <path d=" M 17.13 15.87 C 17.69 14.96 18 13.89 18 12.75 L 18 11.25 M 12 18.75 C 13.08 18.75 14.1 18.46 14.97 17.96 M 12 18.75 C 8.69 18.75 6 16.06 6 12.75 L 6 11.25 M 12 18.75 L 12 22.5 M 8.25 22.5 L 15.75 22.5 M 9 7.75 L 9 4.5 C 9 2.84 10.34 1.5 12 1.5 C 13.66 1.5 15 2.84 15 4.5 L 15 12.75 C 15 13.05 14.96 13.34 14.87 13.62 M 12.68 15.67 C 12.46 15.72 12.23 15.75 12 15.75 C 10.34 15.75 9 14.41 9 12.75 L 9 11.99 M 19.5 18.25 L 5 3.75" stroke="#0F172A" stroke-width="1.5" stroke-linecap="round" stroke-linejoin="round"/>
    </svg>