<svg width="24" height="24" viewBox="0 0 24 24" fill="none" xmlns="http://www.w3.org/2000/svg">
    <path d=" M 7.19 8.92 L 16.19 8.92 M 7.19 11.92 L 11.69 11.92 M 15.91 3.85 C 14.51 3.73 13.1 3.67 11.69 3.67 C 9.3 3.67 6.95 3.84 4.65 4.18 C 3.07 4.41 1.94 5.81 1.94 7.41 L 1.94 13.43 L 1.94 13.43 C 1.94 15.03 3.06 16.42 4.65 16.66 C 5.78 16.83 6.92 16.95 8.07 17.04 C 8.42 17.07 8.74 17.25 8.93 17.54 L 11.69 21.67 L 14.45 17.54 C 14.55 17.4 14.67 17.28 14.82 17.19 C 14.97 17.1 15.14 17.05 15.31 17.04 C 16.46 16.95 17.6 16.83 18.73 16.66 C 20.31 16.43 21.44 15.03 21.44 13.43 L 21.44 8.56 M 18.06 2.33 L 18.06 6.33 M 18.06 6.33 L 18.06 10.33 M 18.06 6.33 L 22.06 6.33 M 18.06 6.33 L 14.06 6.33" stroke="#0F172A" stroke-width="1.5" stroke-linecap="round" stroke-linejoin="round"/>
    </svg>