<svg width="24" height="24" viewBox="0 0 24 24" fill="none" xmlns="http://www.w3.org/2000/svg">
    <path d=" M 13.685 22.05 L 13.685 18.77 C 16.455 16.51 17.835 14.82 17.835 11.72 C 17.835 10.77 17.685 9.91 17.395 9.13 C 17.105 8.35 16.705 7.69 16.185 7.14 C 15.665 6.59 15.065 6.17 14.365 5.87 C 13.665 5.57 12.895 5.43 12.075 5.43 C 11.255 5.43 10.435 5.58 9.715 5.87 C 8.995 6.16 8.375 6.59 7.855 7.14 C 7.335 7.69 6.935 8.36 6.645 9.15 C 6.355 9.94 6.205 10.83 6.205 11.81 C 6.205 14.8 7.575 16.45 10.315 18.76 L 10.315 22.04 L 1.955 22.04 L 1.955 18.74 L 5.905 18.74 C 2.615 16.75 1.965 14.92 1.965 11.24 C 1.965 9.82 2.215 8.54 2.705 7.4 C 3.195 6.26 3.895 5.28 4.775 4.48 C 5.655 3.68 6.725 3.05 7.945 2.61 C 9.165 2.17 10.515 1.95 11.985 1.95 C 13.455 1.95 14.845 2.17 16.085 2.61 C 17.325 3.05 18.385 3.68 19.265 4.48 C 20.145 5.28 20.825 6.26 21.315 7.39 C 21.805 8.52 22.045 9.78 22.045 11.17 C 22.045 14.9 21.365 16.76 18.005 18.74 L 22.035 18.74 C 22.035 18.74 22.035 22.02 22.035 22.02 L 13.695 22.02 L 13.685 22.05 Z "  stroke="#0F172A" stroke-width="1.5" stroke-linecap="round" stroke-linejoin="round"/>
    </svg>