<svg width="24" height="24" viewBox="0 0 24 24" fill="none" xmlns="http://www.w3.org/2000/svg">
    <path d=" M 1.9 6.855 C 1.9 15.135 8.62 21.855 16.9 21.855 L 19.15 21.855 C 20.39 21.855 21.4 20.845 21.4 19.605 L 21.4 18.235 C 21.4 17.715 21.05 17.265 20.55 17.145 L 16.13 16.035 C 15.69 15.925 15.23 16.085 14.96 16.455 L 13.99 17.745 C 13.71 18.125 13.22 18.285 12.78 18.125 C 9.47 16.915 6.85 14.285 5.64 10.985 C 5.48 10.545 5.64 10.055 6.02 9.775 L 7.31 8.805 C 7.67 8.535 7.84 8.075 7.73 7.635 L 6.62 3.215 C 6.49 2.715 6.04 2.365 5.53 2.365 L 4.16 2.365 C 2.92 2.365 1.91 3.375 1.91 4.615 L 1.91 6.865 L 1.9 6.855 Z  M 18.6 2.145 L 22.1 5.645 L 18.6 9.145 M 14.1 5.645 L 22.1 5.645" stroke="#0F172A" stroke-width="1.5" stroke-linecap="round" stroke-linejoin="round"/>
    </svg>