<svg width="24" height="24" viewBox="0 0 24 24" fill="none" xmlns="http://www.w3.org/2000/svg">
    <path d=" M 5.81 16.418 C 3.82 14.088 2.92 11.168 2.92 11.168 C 2.48 9.758 2.25 8.258 2.25 6.708 L 2.25 4.458 C 2.25 3.218 3.26 2.208 4.5 2.208 L 5.87 2.208 C 6.39 2.208 6.84 2.558 6.96 3.058 L 8.07 7.478 C 8.18 7.918 8.02 8.378 7.65 8.648 L 6.36 9.618 C 6.06 10.138 5.99 10.568 5.98 10.828 C 5.92 12.008 6.74 12.968 7.93 14.308 M 7.42 18.008 C 10.06 20.198 13.85 21.168 13.85 21.168 C 14.94 21.468 15.68 21.528 17.25 21.698 C 18.82 21.868 19.11 21.768 19.5 21.698 C 20.72 21.468 21.75 20.688 21.75 19.448 L 21.75 18.078 C 21.75 17.558 21.4 17.108 20.9 16.988 L 16.48 15.878 C 16.04 15.768 15.58 15.928 15.31 16.298 L 14.34 17.588 C 14.06 17.968 13.62 18.068 13.13 17.968 C 12.93 17.938 12.74 17.888 12.4 17.778 C 12.31 17.748 12.04 17.658 11.73 17.508 C 10.88 17.098 10.16 16.458 9.51 15.878 M 19.86 2.388 L 2.28 19.978" stroke="#0F172A" stroke-width="1.5" stroke-linecap="round" stroke-linejoin="round"/>
    </svg>