<svg width="24" height="24" viewBox="0 0 24 24" fill="none" xmlns="http://www.w3.org/2000/svg">
    <path d=" M 1.905 7.105 C 1.905 15.385 8.625 22.105 16.905 22.105 L 19.155 22.105 C 20.395 22.105 21.405 21.095 21.405 19.855 L 21.405 18.485 C 21.405 17.965 21.055 17.515 20.555 17.395 L 16.135 16.285 C 15.695 16.175 15.235 16.335 14.965 16.705 L 13.995 17.995 C 13.715 18.375 13.225 18.535 12.785 18.375 C 9.475 17.165 6.855 14.535 5.645 11.235 C 5.485 10.795 5.645 10.305 6.025 10.025 L 7.315 9.055 C 7.675 8.785 7.845 8.325 7.735 7.885 L 6.625 3.465 C 6.495 2.965 6.045 2.615 5.535 2.615 L 4.165 2.615 C 2.925 2.615 1.915 3.625 1.915 4.865 L 1.915 7.115 L 1.905 7.105 Z  M 14.145 5.895 C 16.145 6.285 17.705 7.845 18.095 9.845 M 14.145 1.895 C 18.325 2.355 21.625 5.655 22.095 9.835" stroke="#0F172A" stroke-width="1.5" stroke-linecap="round" stroke-linejoin="round"/>
    </svg>