<svg width="24" height="24" viewBox="0 0 24 24" fill="#0F172A" xmlns="http://www.w3.org/2000/svg">
<path d=" M 12 22.55 C 6.18 22.55 1.45 17.82 1.45 12 C 1.45 6.18 6.18 1.45 12 1.45 C 17.82 1.45 22.55 6.18 22.55 12 C 22.55 17.82 17.82 22.55 12 22.55 Z  M 12 2.45 C 6.73 2.45 2.45 6.73 2.45 12 C 2.45 17.27 6.73 21.55 12 21.55 C 17.27 21.55 21.55 17.27 21.55 12 C 21.55 6.73 17.27 2.45 12 2.45 Z  M 12 4.08 C 7.63 4.08 4.08 7.63 4.08 12 C 4.08 16.37 7.63 19.92 12 19.92 C 16.37 19.92 19.92 16.37 19.92 12 C 19.92 7.63 16.37 4.08 12 4.08 Z " fill="rgb(0,0,0)"/>
</svg>