<svg width="24" height="24" viewBox="0 0 24 24" fill="none" xmlns="http://www.w3.org/2000/svg">
    <path d=" M 20.892 10.61 C 21.66 15.52 18.3 20.124 13.39 20.892 C 8.48 21.66 3.876 18.3 3.108 13.39 C 2.34 8.48 5.7 3.876 10.61 3.108 C 15.52 2.34 20.124 5.7 20.892 10.61 Z  M 9.036 12.463 C 8.78 10.823 9.897 9.292 11.537 9.036 L 11.537 9.036 C 13.177 8.78 14.708 9.897 14.964 11.537 L 14.964 11.537 C 15.22 13.177 14.103 14.708 12.463 14.964 L 12.463 14.964 C 10.823 15.22 9.292 14.103 9.036 12.463 L 9.036 12.463 Z " stroke="#0F172A" stroke-width="1.5" stroke-linecap="round" stroke-linejoin="round"/>
</svg>
