<svg width="24" height="24" viewBox="0 0 24 24" fill="#0F172A" xmlns="http://www.w3.org/2000/svg">
    <path d=" M 12 21.75 C 6.62 21.75 2.25 17.38 2.25 12 C 2.25 6.62 6.62 2.25 12 2.25 C 17.38 2.25 21.75 6.62 21.75 12 C 21.75 17.38 17.38 21.75 12 21.75 Z  M 12 3.75 C 7.45 3.75 3.75 7.45 3.75 12 C 3.75 16.55 7.45 20.25 12 20.25 C 16.55 20.25 20.25 16.55 20.25 12 C 20.25 7.45 16.55 3.75 12 3.75 Z  M 12 15.75 C 9.93 15.75 8.25 14.07 8.25 12 C 8.25 9.93 9.93 8.25 12 8.25 C 14.07 8.25 15.75 9.93 15.75 12 C 15.75 14.07 14.07 15.75 12 15.75 Z " stroke="none"/>
    </svg>