<svg width="24" height="24" viewBox="0 0 24 24" fill="none" xmlns="http://www.w3.org/2000/svg">
<path d=" M 15 22.74 L 12 19.74 L 15 16.74 M 6.44 5.13 C 4.94 5.63 4.71 7.62 4.64 8.57 C 4.46 11.01 4.46 13.46 4.64 15.89 C 4.71 16.85 5.12 17.75 5.8 18.43 C 6.48 19.11 7.38 19.52 8.34 19.59 C 8.56 19.61 8.78 19.62 9 19.64 M 12 19.73 C 13.23 19.73 14.45 19.68 15.66 19.59 C 16.62 19.52 17.52 19.11 18.2 18.43 C 18.88 17.75 19.29 16.85 19.36 15.89 C 19.54 13.45 19.54 11 19.36 8.57 C 19.29 7.61 18.88 6.71 18.2 6.03 C 17.52 5.35 16.62 4.94 15.66 4.87 L 10.62 4.87 M 8.44 7.62 L 8.44 1.26 L 6.42 3.15 M 10.49 7.76 L 6.53 7.76" stroke="#0F172A" stroke-width="1.5" stroke-linecap="round" stroke-linejoin="round"/>
</svg>