<svg width="24" height="24" viewBox="0 0 24 24" fill="#0F172A" xmlns="http://www.w3.org/2000/svg">
    <path d=" M 13.54 4.435 C 8.47 4.435 4.36 8.545 4.36 13.615 C 4.36 15.875 5.18 17.945 6.53 19.545 L 6.53 22.495 C 6.53 22.625 6.68 22.715 6.79 22.645 L 8.81 21.475 C 10.19 22.305 11.8 22.795 13.53 22.795 C 18.6 22.795 22.71 18.685 22.71 13.615 C 22.71 8.545 18.6 4.435 13.53 4.435 L 13.54 4.435 Z  M 13.54 20.145 C 9.94 20.145 7.02 17.225 7.02 13.625 C 7.02 10.025 9.94 7.105 13.54 7.105 C 17.14 7.105 20.06 10.025 20.06 13.625 C 20.06 17.225 17.14 20.145 13.54 20.145 Z  M 3.47 5.575 C 2.26 5.575 1.29 4.595 1.29 3.395 C 1.29 2.195 2.26 1.205 3.47 1.205 C 4.68 1.205 5.65 2.185 5.65 3.395 C 5.65 4.605 4.67 5.575 3.47 5.575 Z " stroke="none"/>
    </svg>