<svg width="24" height="24" viewBox="0 0 24 24" fill="none" xmlns="http://www.w3.org/2000/svg">
    <path d=" M 3.75 5.855 C 3.7 5.855 3.65 5.855 3.6 5.855 C 3.21 7.035 3 8.295 3 9.605 C 3 15.195 6.82 19.895 12 21.225 C 13.75 20.775 15.34 19.945 16.69 18.815 M 18.28 17.215 C 19.99 15.145 21.01 12.485 21.01 9.595 C 21.01 8.285 20.8 7.025 20.41 5.845 C 20.36 5.845 20.31 5.845 20.26 5.845 C 17.06 5.845 14.16 4.595 12.01 2.555 C 10.51 3.975 8.65 5.005 6.58 5.505 M 21.044 19.969 L 2.989 1.934" stroke="#0F172A" stroke-width="1.5" stroke-linecap="round" stroke-linejoin="round"/>
    </svg>