<svg width="24" height="24" viewBox="0 0 24 24" fill="none" xmlns="http://www.w3.org/2000/svg">
<path d=" M 20.115 15 C 20.115 15 20.115 18.99 20.115 19 C 20.115 19.13 20.105 19.84 19.525 20.41 C 19.165 20.77 18.665 21 18.115 21 L 4.115 21 C 3.015 21 2.115 20.1 2.115 19 L 2.115 5 C 2.115 3.9 3.015 3 4.115 3 L 18.115 3 C 19.215 3 20.115 3.9 20.115 5 C 20.115 6.62 20.115 9 20.115 9 M 8.115 3 L 8.115 21 M 16.345 8.04 L 12.385 12 L 16.345 15.96 M 12.385 12 L 21.885 12" stroke="#0F172A" stroke-width="1.5" stroke-linecap="round" stroke-linejoin="round"/>
</svg>