<svg width="24" height="24" viewBox="0 0 24 24" fill="none" xmlns="http://www.w3.org/2000/svg">
    <path d=" M 8.195 5.34 L 15.805 5.34 C 19.485 5.34 22.465 8.32 22.465 12 L 22.465 12 C 22.465 15.68 19.485 18.66 15.805 18.66 L 8.195 18.66 C 4.515 18.66 1.535 15.68 1.535 12 L 1.535 12 C 1.535 8.32 4.515 5.34 8.195 5.34 Z  M 8.195 9.15 C 9.775 9.15 11.045 10.43 11.045 12 C 11.045 13.57 9.765 14.85 8.195 14.85 C 6.625 14.85 5.345 13.57 5.345 12 C 5.345 10.43 6.625 9.15 8.195 9.15 Z " stroke="#0F172A" stroke-width="1.5" stroke-linecap="round" stroke-linejoin="round"/>
    </svg>