<svg width="24" height="24" viewBox="0 0 24 24" fill="none" xmlns="http://www.w3.org/2000/svg">
    <path d=" M 8.195 5.34 L 15.805 5.34 C 19.485 5.34 22.465 8.32 22.465 12 L 22.465 12 C 22.465 15.68 19.485 18.66 15.805 18.66 L 8.195 18.66 C 4.515 18.66 1.535 15.68 1.535 12 L 1.535 12 C 1.535 8.32 4.515 5.34 8.195 5.34 Z  M 15.805 9.15 C 17.385 9.15 18.655 10.43 18.655 12 C 18.655 13.57 17.375 14.85 15.805 14.85 C 14.235 14.85 12.955 13.57 12.955 12 C 12.955 10.43 14.235 9.15 15.805 9.15 Z " stroke="#0F172A" stroke-width="1.5" stroke-linecap="round" stroke-linejoin="round"/>
    </svg>