<svg width="24" height="24" viewBox="0 0 24 24" fill="none" xmlns="http://www.w3.org/2000/svg">
<path d="M 15.295 6.05 C 15.295 6.48 15.205 6.91 15.045 7.31 C 14.875 7.71 14.635 8.07 14.335 8.38 C 14.025 8.69 13.665 8.93 13.265 9.09 C 12.865 9.26 12.435 9.34 12.005 9.34 C 11.575 9.34 11.145 9.25 10.745 9.09 C 10.345 8.92 9.985 8.68 9.675 8.38 C 9.365 8.07 9.125 7.71 8.965 7.31 C 8.795 6.91 8.715 6.48 8.715 6.05 C 8.715 5.18 9.065 4.34 9.685 3.72 C 10.305 3.1 11.145 2.75 12.015 2.75 C 12.885 2.75 13.725 3.1 14.345 3.72 C 14.965 4.34 15.315 5.18 15.315 6.05 L 15.315 6.05 L 15.295 6.05 Z  M 16.575 19.44 C 15.125 20.03 13.575 20.34 12.005 20.34 C 9.725 20.34 7.595 19.71 5.775 18.62 L 5.775 18.62 C 5.775 18.62 5.775 18.51 5.775 18.51 C 5.775 16.86 6.435 15.27 7.595 14.11 C 8.225 13.48 8.975 13 9.785 12.69 M 12.395 12.3 C 13.905 12.4 15.325 13.04 16.395 14.11 C 17.465 15.18 18.105 16.6 18.205 18.1 M 19.715 19.72 C 21.765 17.67 22.915 14.9 22.915 12 C 22.915 9.1 21.765 6.33 19.715 4.28 C 17.665 2.23 14.895 1.08 11.995 1.08 C 9.095 1.08 6.325 2.23 4.285 4.28 M 19.725 19.72 C 17.675 21.77 14.905 22.92 12.005 22.92 C 9.105 22.92 6.335 21.77 4.285 19.72 C 2.235 17.67 1.085 14.9 1.085 12 C 1.085 9.1 2.235 6.32 4.285 4.28 M 19.725 19.72 L 4.285 4.28" stroke="#0F172A" stroke-width="1.5" stroke-linecap="round" stroke-linejoin="round"/>
</svg>
