<svg width="24" height="24" viewBox="0 0 24 24" fill="none" xmlns="http://www.w3.org/2000/svg">
    <path d=" M 16.52 17.35 L 16.17 21.18 C 16.08 22.21 15.21 23 14.17 23 L 9.84 23 C 8.8 23 7.93 22.21 7.84 21.18 L 7.49 17.35 M 7.5 6.65 L 7.85 2.82 C 7.94 1.79 8.81 1 9.84 1 L 14.19 1 C 15.23 1 16.1 1.79 16.19 2.82 L 16.54 6.65 M 12 7.33 L 12 12 L 15.5 12 M 19 12 C 19 15.87 15.87 19 12 19 C 8.13 19 5 15.87 5 12 C 5 8.13 8.13 5 12 5 C 15.87 5 19 8.13 19 12 Z " stroke="#0F172A" stroke-width="1.5" stroke-linecap="round" stroke-linejoin="round"/>
    </svg>