<svg width="24" height="24" viewBox="0 0 24 24" fill="none" xmlns="http://www.w3.org/2000/svg">
<path d=" M 14.465 10.28 L 21.775 2.98 M 21.775 2.98 L 18.775 2.98 M 21.775 2.98 L 21.775 5.98 M 20.225 9.02 L 20.225 18.77 C 20.225 19.37 19.985 19.94 19.565 20.36 C 19.145 20.78 18.575 21.02 17.975 21.02 L 4.475 21.02 C 3.875 21.02 3.305 20.78 2.885 20.36 C 2.465 19.94 2.225 19.37 2.225 18.77 L 2.225 9.02 M 20.225 7.76 L 20.225 9.02 M 16.925 4.52 L 4.475 4.52 C 3.875 4.52 3.305 4.76 2.885 5.18 C 2.465 5.6 2.225 6.17 2.225 6.77 L 2.225 9.02 M 18.765 9.02 L 20.225 9.02 M 2.225 9.02 L 12.585 9.02 M 4.475 6.78 L 4.475 6.78 C 4.475 6.78 4.475 6.78 4.475 6.78 L 4.475 6.78 Z  M 6.725 6.78 L 6.725 6.78 C 6.725 6.78 6.725 6.78 6.725 6.78 L 6.725 6.78 Z  M 8.975 6.78 L 8.975 6.78 C 8.975 6.78 8.975 6.78 8.975 6.78 L 8.975 6.78 Z " stroke="#0F172A" stroke-width="1.5" stroke-linecap="round" stroke-linejoin="round"/>
</svg>
